<?xml version="1.0" encoding="UTF-8"?>
<svg xmlns="http://www.w3.org/2000/svg" version="1.1" xmlns:xlink="http://www.w3.org/1999/xlink" viewBox="0 0 1370 1240">
  <defs>
    <style>
      .cls-1 {
        fill: #fff;
      }

      .cls-2 {
        fill: url(#linear-gradient);
      }

      .cls-2, .cls-3 {
        opacity: .94;
      }

      .cls-3 {
        fill: url(#linear-gradient-2);
      }

      .cls-4 {
        fill: #007bff;
      }
    </style>
    <linearGradient id="linear-gradient" x1="301.77" y1="576.47" x2="1106.02" y2="841.73" gradientUnits="userSpaceOnUse">
      <stop offset="0" stop-color="#007bff"/>
      <stop offset=".15" stop-color="#0071ff"/>
      <stop offset=".41" stop-color="#0056ff"/>
      <stop offset=".74" stop-color="#002bff"/>
      <stop offset="1" stop-color="#0004ff"/>
    </linearGradient>
    <linearGradient id="linear-gradient-2" x1="767.79" y1="437.12" x2="831.07" y2="457.99" xlink:href="#linear-gradient"/>
  </defs>
  <!-- Generator: Adobe Illustrator 28.7.1, SVG Export Plug-In . SVG Version: 1.2.0 Build 142)  -->
  <g>
    <g id="Layer_4_copy">
      <path class="cls-1" d="M976.63,51.26H405.65c-152.71,0-276.51,123.8-276.51,276.51v602.97c0,152.71,123.8,276.51,276.51,276.51h570.97c152.71,0,276.51-123.8,276.51-276.51V327.77c0-152.71-123.8-276.51-276.51-276.51ZM764.8,555.83l160.27.64-23.84,157.27-137.48,1.37s.67,299.78.67,462.27l-174.8.68.71-464.93-137.75-.62-.11-156.24,137.77-.71s-.46-31.07-.46-100.86c6.81-85.57,85.85-179.19,187.51-184.39,104.44,0,154.52-1.47,154.52-1.47l2.82,150.7s-60.65-1.23-104.74.51c-37.29,7.83-58.17,28.2-65.32,60.99,0,41.38.24,74.79.24,74.79Z"/>
    </g>
    <g id="Layer_5">
      <g>
        <path class="cls-2" d="M764.56,484.46h0s-.43,41.79-.43,74.09c4.54,34.45,31.95,33.86,31.95,33.86l123.38-1.1-18.75,123.81-137.01,1.09.02,467.59-145.46-.32-1.93-432.75-27.16-34.99-108.69-.1-.44-124.58,129-.94,6.62-7.34.84-122.04s24.12-136.7,168.65-160.04c139.05,0,145.2.73,145.2.73l2.77,119.52s-3-8.68-93.49.21c42.76-1.25,94.99-.18,94.99-.18l-2.82-152.15s-50.08,1.49-154.52,1.49c-101.65,5.26-180.7,99.78-187.51,186.17,0,70.46.46,101.84.46,101.84l-137.77.72.11,157.75,137.75.62-.71,469.41,174.8-.69c0-164.06-.67-466.73-.67-466.73l137.48-1.38,23.84-158.79-160.27-.65s-.23-33-.24-74.14Z"/>
        <path class="cls-3" d="M768.2,470.45c8.92-24.36,27.28-40.29,56.56-47.73h0c-35.65,3.86-50.61,30.74-56.56,47.73Z"/>
      </g>
    </g>
    <g id="Layer_3_copy">
      <path class="cls-4" d="M129.14,930.74s8.1,58.91,45.64,115.92c12.44,18.9,39.72,51.79,59.26,68.42,15.76,13.41,36.67,28.39,61.99,40.26,34.81,16.32,58.78,20.06,79.26,21.5,78.77,5.54,150.67,3.68,315.85,3.68,255.55,0,411.47,32.54,517.51-127.26,16.93-28.51,31.59-84.38,34.07-115.22,0-157.09.59-362.46.59-579.15-4.56-125.25-11.96-127.06-34.75-167.92-73.41-131.65-231.93-139.71-231.93-139.71,152.71,0,276.51,123.8,276.51,276.51v602.97c0,152.71-123.8,276.51-276.51,276.51H405.65c-152.71,0-276.51-123.8-276.51-276.51Z"/>
    </g>
  </g>
</svg>