<?xml version="1.0" encoding="UTF-8"?>
<svg xmlns="http://www.w3.org/2000/svg" version="1.1" xmlns:xlink="http://www.w3.org/1999/xlink" viewBox="0 0 1370 1240">
  <defs>
    <style>
      .cls-1 {
        fill: url(#linear-gradient-2);
        opacity: .22;
      }

      .cls-2 {
        opacity: .43;
      }

      .cls-3 {
        fill: #fff;
      }

      .cls-4, .cls-5 {
        fill: none;
      }

      .cls-6 {
        fill: url(#linear-gradient-4);
      }

      .cls-7 {
        fill: url(#radial-gradient);
      }

      .cls-8 {
        fill: #e0e0e0;
      }

      .cls-9 {
        fill: url(#linear-gradient-3);
      }

      .cls-10 {
        clip-path: url(#clippath-1);
      }

      .cls-11 {
        fill: url(#linear-gradient-5);
      }

      .cls-5 {
        opacity: .08;
        stroke: #fff;
        stroke-miterlimit: 10;
        stroke-width: 22px;
      }

      .cls-12 {
        fill: url(#linear-gradient-8);
        opacity: .4;
      }

      .cls-13 {
        fill: url(#linear-gradient-7);
      }

      .cls-14 {
        fill: url(#linear-gradient-6);
        opacity: .23;
      }

      .cls-15 {
        fill: url(#linear-gradient);
      }

      .cls-16 {
        clip-path: url(#clippath);
      }
    </style>
    <linearGradient id="linear-gradient" x1="503.8" y1="620" x2="2070.52" y2="620" gradientUnits="userSpaceOnUse">
      <stop offset="0" stop-color="#0056b1"/>
      <stop offset="0" stop-color="#0054ad"/>
      <stop offset=".08" stop-color="#004084"/>
      <stop offset=".15" stop-color="#002f61"/>
      <stop offset=".24" stop-color="#002042"/>
      <stop offset=".33" stop-color="#00142a"/>
      <stop offset=".43" stop-color="#000b17"/>
      <stop offset=".55" stop-color="#00040a"/>
      <stop offset=".7" stop-color="#000102"/>
      <stop offset="1" stop-color="#000"/>
    </linearGradient>
    <linearGradient id="linear-gradient-2" x1="459.87" y1="670.76" x2="1438.82" y2="670.76" gradientUnits="userSpaceOnUse">
      <stop offset="0" stop-color="#003165"/>
      <stop offset=".01" stop-color="#002e60"/>
      <stop offset=".11" stop-color="#002042"/>
      <stop offset=".22" stop-color="#00142a"/>
      <stop offset=".34" stop-color="#000b17"/>
      <stop offset=".48" stop-color="#00040a"/>
      <stop offset=".65" stop-color="#000102"/>
      <stop offset="1" stop-color="#000"/>
    </linearGradient>
    <linearGradient id="linear-gradient-3" x1="406.19" y1="620" x2="1385.14" y2="620" gradientUnits="userSpaceOnUse">
      <stop offset="0" stop-color="#007bff"/>
      <stop offset=".59" stop-color="#003166"/>
      <stop offset="1" stop-color="#000"/>
    </linearGradient>
    <clipPath id="clippath">
      <rect class="cls-4" x="320.38" y="242.8" width="140" height="335"/>
    </clipPath>
    <clipPath id="clippath-1">
      <rect class="cls-4" x="309" y="252" width="752" height="736" rx="158.63" ry="158.63"/>
    </clipPath>
    <linearGradient id="linear-gradient-4" x1="373.83" y1="414.74" x2="405.07" y2="414.74" gradientUnits="userSpaceOnUse">
      <stop offset="0" stop-color="#0071bd"/>
      <stop offset=".46" stop-color="#003c64"/>
      <stop offset="1" stop-color="#000"/>
    </linearGradient>
    <linearGradient id="linear-gradient-5" x1="397.83" y1="414.74" x2="429.07" y2="414.74" gradientUnits="userSpaceOnUse">
      <stop offset="0" stop-color="#fff"/>
      <stop offset=".59" stop-color="#666"/>
      <stop offset="1" stop-color="#000"/>
    </linearGradient>
    <linearGradient id="linear-gradient-6" x1="386.19" y1="538.9" x2="386.19" y2="573.21" gradientUnits="userSpaceOnUse">
      <stop offset="0" stop-color="#000" stop-opacity=".04"/>
      <stop offset=".85" stop-color="#000" stop-opacity=".49"/>
      <stop offset=".99" stop-color="#000"/>
      <stop offset="1" stop-color="#000"/>
      <stop offset="1" stop-color="#000"/>
    </linearGradient>
    <linearGradient id="linear-gradient-7" x1="505.56" y1="620" x2="1135.62" y2="620" gradientUnits="userSpaceOnUse">
      <stop offset="0" stop-color="#fff"/>
      <stop offset=".15" stop-color="#fff"/>
      <stop offset="1" stop-color="#fff"/>
    </linearGradient>
    <linearGradient id="linear-gradient-8" x1="858.73" y1="518.71" x2="399.14" y2="650.7" gradientUnits="userSpaceOnUse">
      <stop offset="0" stop-color="#000"/>
      <stop offset=".08" stop-color="#080808"/>
      <stop offset=".22" stop-color="#212121"/>
      <stop offset=".4" stop-color="#494949"/>
      <stop offset=".6" stop-color="gray"/>
      <stop offset=".83" stop-color="#c6c6c6"/>
      <stop offset="1" stop-color="#fff"/>
    </linearGradient>
    <radialGradient id="radial-gradient" cx="957.16" cy="408.59" fx="957.16" fy="408.59" r="72.87" gradientTransform="translate(0 -126.01) scale(1 1.31)" gradientUnits="userSpaceOnUse">
      <stop offset="0" stop-color="#000" stop-opacity=".42"/>
      <stop offset=".85" stop-color="#000" stop-opacity=".77"/>
      <stop offset=".99" stop-color="#000"/>
      <stop offset="1" stop-color="#000"/>
    </radialGradient>
  </defs>
  <!-- Generator: Adobe Illustrator 28.7.1, SVG Export Plug-In . SVG Version: 1.2.0 Build 142)  -->
  <g>
    <g id="Layer_2_copy">
      <g>
        <rect class="cls-3" x="110" y="35" width="1150" height="1170" rx="243.02" ry="243.02"/>
        <path class="cls-15" d="M110,961.98s6.07,223.42,246.59,223.42c316.04,2.47,320.81-2.73,689.51-2.73,135.8-9.34,194.99-152.81,196.84-194.68,0-314.42,5.22-711.4,5.22-711.4,0,0,3.74-49.52-31.69-116.28-81.17-128.88-199.5-125.3-199.5-125.3,134.22,0,243.02,108.81,243.02,243.02v683.95c0,134.22-108.81,243.02-243.02,243.02H353.02c-134.22,0-243.02-108.81-243.02-243.02Z"/>
      </g>
    </g>
    <g id="Layer_4_copy">
      <path class="cls-1" d="M956.04,303.7c86.48-19.74,156.76,121.59,158.63,158.63v418.73c0,87.61-71.02,158.63-158.63,158.63h-434.73c-55.32,0-158.63-64.33-158.63-158.63"/>
    </g>
    <g id="Layer_4">
      <rect class="cls-9" x="309" y="252" width="752" height="736" rx="158.63" ry="158.63"/>
    </g>
    <g id="Layer_14">
      <g class="cls-16">
        <g class="cls-10">
          <rect class="cls-6" x="370.73" y="226.24" width="24" height="377"/>
          <rect class="cls-11" x="394.73" y="226.24" width="24" height="377"/>
        </g>
      </g>
    </g>
    <g id="Layer_15">
      <rect class="cls-14" x="309" y="559.8" width="154.38" height="18"/>
    </g>
    <g id="Layer_5_copy">
      <ellipse class="cls-2" cx="730.52" cy="658.58" rx="234.48" ry="240" transform="translate(-161 243.14) rotate(-17.05)"/>
    </g>
    <g id="Layer_5_copy_2">
      <ellipse class="cls-8" cx="697" cy="624" rx="242" ry="246"/>
    </g>
    <g id="Layer_5">
      <circle class="cls-13" cx="685" cy="620" r="242"/>
    </g>
    <g id="Layer_8">
      <path class="cls-12" d="M497.61,612.64c0-101.34,80.76-183.5,180.38-183.5s142.62,75.5,142.62,75.5l-256.88,247.5s-66.12-38.16-66.12-139.5Z"/>
    </g>
    <g id="Layer_8_copy">
      <circle cx="685" cy="620" r="185"/>
    </g>
    <g id="Layer_10_copy">
      <path class="cls-7" d="M896.22,417.83l63.49-70.68s41.92,20.31,38.69,55.5c0,27.89-22.61,50.5-50.5,50.5-39.59,3.73-51.68-35.32-51.68-35.32Z"/>
    </g>
    <g id="Layer_10">
      <circle class="cls-3" cx="939.56" cy="393.02" r="50.5"/>
    </g>
    <g id="Layer_10_copy_2">
      <circle class="cls-3" cx="939.56" cy="393.02" r="50.5"/>
    </g>
    <g id="Layer_4_copy_2">
      <rect class="cls-5" x="309" y="252" width="752" height="736" rx="158.63" ry="158.63"/>
    </g>
  </g>
</svg>